<?xml version="1.0" encoding="UTF-8" standalone="no"?>
<!DOCTYPE svg PUBLIC "-//W3C//DTD SVG 1.1//EN" "http://www.w3.org/Graphics/SVG/1.1/DTD/svg11.dtd">
<svg width="100%" height="100%" viewBox="0 0 673 224" version="1.1" xmlns="http://www.w3.org/2000/svg" xmlns:xlink="http://www.w3.org/1999/xlink" xml:space="preserve" xmlns:serif="http://www.serif.com/" style="fill-rule:evenodd;clip-rule:evenodd;stroke-linejoin:round;stroke-miterlimit:2;">
    <g id="Mesa-de-trabajo2" serif:id="Mesa de trabajo2" transform="matrix(1,0,0,1,-10.7294,-42.1493)">
        <rect x="10.729" y="42.149" width="672.667" height="223.333" style="fill:none;"/>
        <clipPath id="_clip1">
            <rect x="10.729" y="42.149" width="672.667" height="223.333"/>
        </clipPath>
        <g clip-path="url(#_clip1)">
            <g id="Mesa-de-trabajo1" serif:id="Mesa de trabajo1" transform="matrix(1,0,0,1,-23.2401,7.17602)">
                <rect x="23.97" y="-7.027" width="689.957" height="313" style="fill:none;"/>
                <g transform="matrix(1,0,0,1,2.48448,-27.0265)">
                    <g>
                        <g transform="matrix(1.18969,0,0,1.18969,-546.227,15.0269)">
                            <rect x="756.796" y="124.943" width="88.558" height="88.558" style="fill:rgb(255,187,0);"/>
                        </g>
                        <g transform="matrix(0.974501,0,0,1,-255.09,-587.842)">
                            <g transform="matrix(139.559,0,0,136,289.486,794.261)">
                                <path d="M0.198,-0.366L0.44,-0.595L0.325,-0.595L0.084,-0.366L0.325,-0.136L0.44,-0.136L0.198,-0.366Z" style="fill:rgb(242,242,242);fill-rule:nonzero;"/>
                            </g>
                            <g transform="matrix(139.559,0,0,136,367.078,794.261)">
                                <path d="M0.043,-0.275C0.043,-0.101 0.154,0.009 0.31,0.009C0.446,0.009 0.535,-0.067 0.563,-0.176L0.465,-0.176C0.445,-0.107 0.391,-0.068 0.31,-0.068C0.21,-0.068 0.136,-0.139 0.136,-0.275C0.136,-0.409 0.21,-0.48 0.31,-0.48C0.391,-0.48 0.446,-0.438 0.465,-0.372L0.563,-0.372C0.535,-0.487 0.446,-0.557 0.31,-0.557C0.154,-0.557 0.043,-0.447 0.043,-0.275Z" style="fill:rgb(242,242,242);fill-rule:nonzero;"/>
                            </g>
                            <g transform="matrix(139.559,0,0,136,451.926,794.261)">
                                <path d="M0.597,-0.275C0.597,-0.448 0.476,-0.557 0.32,-0.557C0.165,-0.557 0.043,-0.448 0.043,-0.275C0.043,-0.101 0.161,0.009 0.316,0.009C0.472,0.009 0.597,-0.101 0.597,-0.275ZM0.136,-0.275C0.136,-0.413 0.223,-0.478 0.319,-0.478C0.413,-0.478 0.504,-0.413 0.504,-0.275C0.504,-0.136 0.411,-0.071 0.316,-0.071C0.221,-0.071 0.136,-0.136 0.136,-0.275Z" style="fill:rgb(242,242,242);fill-rule:nonzero;"/>
                            </g>
                            <g transform="matrix(139.559,0,0,136,541.38,794.261)">
                                <path d="M0.043,-0.276C0.043,-0.106 0.156,0.009 0.303,0.009C0.403,0.009 0.474,-0.042 0.507,-0.103L0.507,-0L0.599,-0L0.599,-0.74L0.507,-0.74L0.507,-0.45C0.469,-0.513 0.39,-0.557 0.304,-0.557C0.156,-0.557 0.043,-0.447 0.043,-0.276ZM0.507,-0.275C0.507,-0.146 0.421,-0.071 0.321,-0.071C0.221,-0.071 0.136,-0.147 0.136,-0.276C0.136,-0.405 0.221,-0.478 0.321,-0.478C0.421,-0.478 0.507,-0.402 0.507,-0.275Z" style="fill:rgb(242,242,242);fill-rule:nonzero;"/>
                            </g>
                            <g transform="matrix(139.559,0,0,136,635.858,794.261)">
                                <path d="M0.31,-0.48C0.404,-0.48 0.484,-0.421 0.483,-0.314L0.137,-0.314C0.147,-0.421 0.221,-0.48 0.31,-0.48ZM0.566,-0.169L0.468,-0.169C0.448,-0.11 0.396,-0.068 0.314,-0.068C0.221,-0.068 0.143,-0.129 0.136,-0.24L0.574,-0.24C0.576,-0.259 0.577,-0.275 0.577,-0.295C0.577,-0.445 0.473,-0.557 0.314,-0.557C0.154,-0.557 0.043,-0.448 0.043,-0.275C0.043,-0.101 0.158,0.009 0.314,0.009C0.45,0.009 0.538,-0.069 0.566,-0.169Z" style="fill:rgb(242,242,242);fill-rule:nonzero;"/>
                            </g>
                            <g transform="matrix(139.559,0,0,136,722.52,794.261)">
                                <path d="M0.168,-0.298C0.168,-0.425 0.234,-0.464 0.321,-0.464L0.345,-0.464L0.345,-0.558C0.258,-0.558 0.199,-0.52 0.168,-0.459L0.168,-0.548L0.077,-0.548L0.077,-0L0.168,-0L0.168,-0.298Z" style="fill:rgb(242,242,242);fill-rule:nonzero;"/>
                            </g>
                            <g transform="matrix(139.559,0,0,136,774.712,794.261)">
                                <path d="M0.471,-0.149C0.467,-0.345 0.149,-0.274 0.149,-0.404C0.149,-0.448 0.189,-0.48 0.256,-0.48C0.329,-0.48 0.371,-0.44 0.375,-0.385L0.466,-0.385C0.46,-0.492 0.38,-0.557 0.259,-0.557C0.137,-0.557 0.058,-0.488 0.058,-0.404C0.058,-0.2 0.382,-0.271 0.382,-0.149C0.382,-0.104 0.342,-0.068 0.27,-0.068C0.193,-0.068 0.146,-0.108 0.141,-0.161L0.047,-0.161C0.053,-0.061 0.143,0.009 0.271,0.009C0.392,0.009 0.471,-0.059 0.471,-0.149Z" style="fill:rgb(242,242,242);fill-rule:nonzero;"/>
                            </g>
                            <g transform="matrix(139.559,0,0,136,847.698,794.261)">
                                <path d="M0.053,0.17L0.143,0.17L0.417,-0.942L0.326,-0.942L0.053,0.17Z" style="fill:rgb(242,242,242);fill-rule:nonzero;"/>
                            </g>
                            <g transform="matrix(139.559,0,0,136,914.264,794.261)">
                                <path d="M0.094,-0.136L0.209,-0.136L0.451,-0.366L0.209,-0.595L0.094,-0.595L0.336,-0.366L0.094,-0.136Z" style="fill:rgb(242,242,242);fill-rule:nonzero;"/>
                            </g>
                        </g>
                    </g>
                </g>
            </g>
        </g>
    </g>
</svg>
